<svg id="button" xmlns="http://www.w3.org/2000/svg" width="97.561" height="97.561" viewBox="0 0 97.561 97.561">
  <path id="Path_466" data-name="Path 466" d="M48.78,0a48.78,48.78,0,1,0,33.8,83.949,1.985,1.985,0,0,0-2.752-2.862A44.666,44.666,0,1,1,90.588,64.939a1.986,1.986,0,1,0,3.7,1.432A48.81,48.81,0,0,0,48.78,0Z" fill="#000"/>
  <path id="Path_467" data-name="Path 467" d="M160.8,158.988a1.985,1.985,0,1,0-2.778,2.837l15.63,15.3a1.986,1.986,0,0,0,2.778-2.838Z" transform="translate(-105.333 -106.001)" fill="#000"/>
  <path id="Path_468" data-name="Path 468" d="M93.735,96.542a1.985,1.985,0,0,0,2.808-2.808L81.575,78.766a1.985,1.985,0,0,0-2.808,2.808Z" transform="translate(-52.315 -52.314)" fill="#000"/>
  <path id="Path_469" data-name="Path 469" d="M123.422,78.766a1.985,1.985,0,0,0-2.808,0L78.766,120.615a1.985,1.985,0,0,0,2.808,2.808l41.848-41.848A1.986,1.986,0,0,0,123.422,78.766Z" transform="translate(-52.314 -52.314)" fill="#000"/>
</svg>
