<svg id="Group_300" data-name="Group 300" xmlns="http://www.w3.org/2000/svg" width="97.753" height="97.599" viewBox="0 0 97.753 97.599">
  <path id="Path_471" data-name="Path 471" d="M102.546.582a1.985,1.985,0,0,0-2.808,0L47.2,53.116,34.17,40.081a1.985,1.985,0,1,0-2.808,2.807L45.8,57.327a1.985,1.985,0,0,0,2.808,0L102.546,3.389A1.985,1.985,0,0,0,102.546.582Z" transform="translate(-5.375 7.61)" fill="#fff"/>
  <path id="Path_472" data-name="Path 472" d="M2.858,65.192a48.78,48.78,0,0,0,90.02,4.528,48.463,48.463,0,0,0,1.875-37.288,1.985,1.985,0,0,0-3.74,1.333A44.809,44.809,0,0,1,29.6,89.3,44.81,44.81,0,1,1,71.79,10.345a1.985,1.985,0,1,0,2.035-3.41A48.781,48.781,0,0,0,2.858,65.192Z" transform="translate(0 -0.019)" fill="#fff"/>
</svg>
