<svg xmlns="http://www.w3.org/2000/svg" width="129.147" height="100.899" viewBox="0 0 129.147 100.899">
  <g id="LOGO_SVG" transform="translate(0)">
    <path id="Path_479" data-name="Path 479" d="M147.451,46.661c-.485-7.094,5.376-10.028,8.079-14.861l.83.236c0,5.852,1.065,11.977-.342,17.468-1.1,4.284-5.277,7.777-8.378,12.019-.707-1.381-1.075-2.135-1.485-2.866A11.257,11.257,0,1,0,131.9,74.293a11.114,11.114,0,0,0,13.054-3.354c5.255-6.6,10.334-13.336,15.6-19.923a20.008,20.008,0,0,1,28.957-2.484A20.527,20.527,0,0,1,190.7,78.194a20.19,20.19,0,0,1-29.357-.288c-2.166-2.3-3.1-4.289-.356-6.834a41.86,41.86,0,0,0,3.879-4.836c2.088,5.409,5.42,8.677,11.015,8.859a11.183,11.183,0,1,0-7.332-19.318,78.7,78.7,0,0,0-6.078,7.32c-3.535,4.466-7.021,8.974-10.541,13.454A19.786,19.786,0,0,1,125.19,81.09a20.531,20.531,0,0,1-6.778-26.97,20.171,20.171,0,0,1,25.707-8.979C145.113,45.565,146.086,46.039,147.451,46.661Z" transform="translate(-91.63 -31.8)" fill="#e3e3e3"/>
    <path id="Path_480" data-name="Path 480" d="M192.7,285.313V308.39l.912.148c-.707-7.372,1.515-13.08,8.939-15.394,5.1-1.586,9.41.094,13.139,4.063l-2.632,3.038c1.136.351,2.121.648,3.09.954a12.6,12.6,0,0,1,8.68,13.523c-.236,2.05-.954,3.132-3.273,3.1-7.563-.106-15.128.059-22.69-.075-6.6-.118-11.277-4.357-11.741-10.944a96.62,96.62,0,0,1,.014-16.412c.2-2.024,2.67-3.82,4.105-5.72Zm18.071,15.179c-3.144-2.439-5.842-2.531-8.512-.9a6.308,6.308,0,0,0-3.064,7.049c.563,2.828,2.357,5.015,5.208,5.22,4.751.339,9.545.092,14.322.092l.452-.881c-1.1-1.233-2.02-3.217-3.342-3.535-2.753-.667-5.72-.453-8.8-.613C207.143,304.881,205.366,301.374,210.774,300.493Z" transform="translate(-145.793 -225.077)" fill="#e3e3e3"/>
    <path id="Path_481" data-name="Path 481" d="M52.048,337.779c.761,5.715.759,5.621-4.3,5.748-4.619.115-9.007-.271-12.6-4.447-2.644,3.217-5.317,5.958-7.372,9.1-2.376,3.639-5.468,3.771-9.662,2.849l5.656-7.223c-1.327-.511-2.321-.853-3.283-1.273a12.726,12.726,0,0,1-7.282-14.611A12.483,12.483,0,0,1,37.753,329.3c1.044,7.336,2.383,8.484,9.962,8.484Zm-26.7-13.61A6.858,6.858,0,0,0,18.4,331a6.974,6.974,0,0,0,7.07,6.752,6.808,6.808,0,0,0,6.714-6.714A6.7,6.7,0,0,0,25.347,324.169Z" transform="translate(-12.861 -250.789)" fill="#e3e3e3"/>
    <path id="Path_482" data-name="Path 482" d="M360.811,350.484c4.2-5.161,8.456-10.282,12.582-15.5a6.268,6.268,0,0,0,.346-7.669,6.491,6.491,0,0,0-6.759-3.1,6.417,6.417,0,0,0-5.656,4.8,4.832,4.832,0,0,0-.125,3.193c1.638,3.179-.316,4.812-2.326,6.554-3.137-2.566-4.32-7.19-2.868-11.6a12.03,12.03,0,0,1,9.8-8.675,11.722,11.722,0,0,1,12.1,4.911c3.045,4.157,3.709,8.967.943,13.27a91.551,91.551,0,0,1-11.041,13.81c-1.256,1.3-4.341.837-6.6,1.178Z" transform="translate(-274.667 -250.749)" fill="#e3e3e3"/>
    <path id="Path_483" data-name="Path 483" d="M455.268,322.943c4.664-4.949,10.5-6.019,15.721-3.1a12.8,12.8,0,0,1,5.988,14.4c-1.414,5.592-6.2,9.163-12.446,9.212-4.23.035-8.463,0-12.882,0,1.833-4.746,3.28-5.783,7.468-5.748,2.083.019,4.169.125,6.245.019a6.5,6.5,0,0,0,6.127-4.683,6.212,6.212,0,0,0-1.989-7.127c-2.274-2.027-5.171-2.651-7.589-.943C458.506,327.372,457.153,325.168,455.268,322.943Z" transform="translate(-348.241 -250.732)" fill="#e3e3e3"/>
    <path id="Path_484" data-name="Path 484" d="M337.49,408.81c.311-.438.6-.9.943-1.313,3.518-4.3,7.049-8.588,10.669-13l5.569,2.074c-3.471,4.242-6.544,8.621-10.318,12.274-1.308,1.266-4.355.735-6.6,1.023C337.66,409.517,337.575,409.163,337.49,408.81Z" transform="translate(-260.985 -309.023)" fill="#e3e3e3"/>
    <path id="Path_485" data-name="Path 485" d="M147.962,328.636c1.136,1.289,2.192,2.486,3.46,3.929l-4.454,4.765-4.358-4.77,3.415-3.922-3.535-4.254c1.65-1.341,3.139-2.564,4.69-3.834l3.863,4.4Z" transform="translate(-111.94 -252.501)" fill="#e3e3e3"/>
  </g>
</svg>
