<svg id="XMLID_23_" xmlns="http://www.w3.org/2000/svg" width="20.036" height="20.036" viewBox="0 0 20.036 20.036">
  <path id="XMLID_24_" d="M75,10.929v3.643a.911.911,0,0,0,.911.911h3.643a.911.911,0,0,0,.644-.267L90.216,5.2a.911.911,0,0,0,0-1.288L86.573.267a.911.911,0,0,0-1.288,0L75.267,10.285A.91.91,0,0,0,75,10.929Zm1.821.377L85.929,2.2l2.355,2.355-9.107,9.107H76.821Z" transform="translate(-70.446 0)" fill="#353b50"/>
  <path id="XMLID_27_" d="M19.125,9.107a.911.911,0,0,0-.911.911v8.2H1.821V1.821h8.2a.911.911,0,1,0,0-1.821H.911A.911.911,0,0,0,0,.911V19.125a.911.911,0,0,0,.911.911H19.125a.911.911,0,0,0,.911-.911V10.018A.911.911,0,0,0,19.125,9.107Z" fill="#353b50"/>
</svg>
