<svg xmlns="http://www.w3.org/2000/svg" width="70.285" height="85.33" viewBox="0 0 70.285 85.33">
  <g id="sms" opacity="0.842">
    <path id="Path_486" data-name="Path 486" d="M127.649,424.172h-9.817a2.5,2.5,0,0,0,0,5h9.817a2.5,2.5,0,0,0,0-5Zm0,0" transform="translate(-96.111 -353.479)" fill="#353b50"/>
    <path id="Path_487" data-name="Path 487" d="M58.878,22.208H53.261V9.619A9.631,9.631,0,0,0,43.641,0H9.619A9.631,9.631,0,0,0,0,9.619V75.711A9.631,9.631,0,0,0,9.619,85.33H43.641a9.63,9.63,0,0,0,9.619-9.619V54.348h5.618A11.42,11.42,0,0,0,70.285,42.94V33.615A11.42,11.42,0,0,0,58.878,22.208ZM34.071,5V7.475H19.189V5ZM48.259,75.711a4.623,4.623,0,0,1-4.618,4.618H9.619A4.623,4.623,0,0,1,5,75.711V9.619A4.623,4.623,0,0,1,9.619,5h4.568V7.679a4.8,4.8,0,0,0,4.8,4.8h15.29a4.8,4.8,0,0,0,4.8-4.8V5h4.568a4.623,4.623,0,0,1,4.618,4.618V22.208H35.536A11.42,11.42,0,0,0,24.129,33.615v22.15a3.063,3.063,0,0,0,4.614,2.644l8.044-4.061H48.259ZM65.283,42.94a6.412,6.412,0,0,1-6.405,6.405H36.313a3.054,3.054,0,0,0-1.55.421L29.131,52.61V33.615a6.413,6.413,0,0,1,6.405-6.405H58.878a6.413,6.413,0,0,1,6.405,6.405Zm0,0" fill="#353b50"/>
    <path id="Path_488" data-name="Path 488" d="M226.982,186.879H205.1a2.5,2.5,0,0,0,0,5h21.883a2.5,2.5,0,0,0,0-5Zm0,0" transform="translate(-168.833 -155.734)" fill="#353b50"/>
    <path id="Path_489" data-name="Path 489" d="M281.692,238.121H270.75a2.5,2.5,0,0,0,0,5h10.942a2.5,2.5,0,0,0,0-5Zm0,0" transform="translate(-223.543 -198.436)" fill="#353b50"/>
  </g>
</svg>
