<svg id="cleaned" xmlns="http://www.w3.org/2000/svg" width="21.222" height="21.222" viewBox="0 0 21.222 21.222">
  <path id="Path_462" data-name="Path 462" d="M235.716,230.981a4.7,4.7,0,0,1-3.337-1.371A4.636,4.636,0,0,1,231,226.3a.622.622,0,1,0-1.243,0,4.636,4.636,0,0,1-1.38,3.313,4.7,4.7,0,0,1-3.337,1.371.622.622,0,0,0,0,1.243,4.713,4.713,0,0,1,4.717,4.7.622.622,0,1,0,1.243,0,4.712,4.712,0,0,1,4.717-4.7.622.622,0,1,0,0-1.243Z" transform="translate(-215.116 -216.322)"/>
  <path id="Path_463" data-name="Path 463" d="M8.506,145.774a3.312,3.312,0,0,1-3.321-3.3.622.622,0,0,0-1.243,0,3.312,3.312,0,0,1-3.321,3.3.622.622,0,1,0,0,1.243,3.318,3.318,0,0,1,3.321,3.307.622.622,0,0,0,1.243,0,3.318,3.318,0,0,1,3.321-3.307.622.622,0,1,0,0-1.243Z" transform="translate(0 -135.976)" />
  <path id="Path_464" data-name="Path 464" d="M215.259,4.3A2.436,2.436,0,0,1,217.7,6.72a.622.622,0,1,0,1.243,0,2.44,2.44,0,0,1,2.442-2.431.622.622,0,1,0,0-1.243A2.436,2.436,0,0,1,218.945.621a.622.622,0,1,0-1.243,0,2.44,2.44,0,0,1-2.442,2.431.622.622,0,0,0,0,1.243Z" transform="translate(-205.74 0)" />
</svg>
