<svg xmlns="http://www.w3.org/2000/svg" width="22.838" height="22.838" viewBox="0 0 22.838 22.838">
  <path id="user_1_" data-name="user (1)" d="M19.494,3.345A11.419,11.419,0,0,0,3.345,19.494,11.419,11.419,0,0,0,19.494,3.345ZM5.725,19.733a5.782,5.782,0,0,1,11.389,0,10.059,10.059,0,0,1-11.389,0ZM7.788,9.986a3.631,3.631,0,1,1,3.631,3.631A3.635,3.635,0,0,1,7.788,9.986Zm10.484,8.819a7.132,7.132,0,0,0-4.146-4.655,4.969,4.969,0,1,0-5.415,0A7.131,7.131,0,0,0,4.566,18.8a10.081,10.081,0,1,1,13.707,0Zm0,0" fill="#9b9b9b"/>
</svg>
